<?xml version="1.0" ?><svg data-name="Слой 1" id="Слой_1" viewBox="0 0 128 128" xmlns="http://www.w3.org/2000/svg"><title/><path d="M66.86,97a2,2,0,0,1-1.23-.42,2,2,0,0,1-.35-2.81L88.44,64,65.28,34.23a2,2,0,0,1,3.16-2.46l24.11,31a2,2,0,0,1,0,2.46l-24.11,31A2,2,0,0,1,66.86,97Z"/><path d="M41,97a2,2,0,0,1-1.58-3.23L62.6,64,39.45,34.23a2,2,0,0,1,3.16-2.46l24.11,31a2,2,0,0,1,0,2.46l-24.11,31A2,2,0,0,1,41,97Z"/><path d="M64,128a64,64,0,1,1,64-64A64.07,64.07,0,0,1,64,128ZM64,4a60,60,0,1,0,60,60A60.07,60.07,0,0,0,64,4Z"/></svg>